nColumns=28
nRows=79
DataType=double
version=3
OpenSimVersion=4.1
endheader
time	ground_force_1_vx	ground_force_1_vy	ground_force_1_vz	ground_force_1_px	ground_force_1_py	ground_force_1_pz	ground_force_1_mx	ground_force_1_my	ground_force_1_mz	ground_force_2_vx	ground_force_2_vy	ground_force_2_vz	ground_force_2_px	ground_force_2_py	ground_force_2_pz	ground_force_2_mx	ground_force_2_my	ground_force_2_mz	ground_force_3_vx	ground_force_3_vy	ground_force_3_vz	ground_force_3_px	ground_force_3_py	ground_force_3_pz	ground_force_3_mx	ground_force_3_my	ground_force_3_mz
8.11	-2.63656	376.775	-59.4739	-0.24265	0.006	-0.386293	0	-0.179884	0	-5.23679	437.131	61.2713	-0.231893	0.006	-0.868682	0	0.710825	0	0	0	0	0	0	0	0	0	0
8.12	-2.79844	377.631	-59.7149	-0.241674	0.006	-0.385927	0	-0.203007	0	-5.50697	436.645	61.2405	-0.23075	0.006	-0.868885	0	0.728037	0	0	0	0	0	0	0	0	0	0
8.13	-2.95664	378.454	-59.9507	-0.2407	0.006	-0.385561	0	-0.224581	0	-5.75194	436.121	61.2163	-0.229595	0.006	-0.869096	0	0.743556	0	0	0	0	0	0	0	0	0	0
8.14	-3.11077	379.238	-60.1781	-0.239723	0.006	-0.385195	0	-0.245211	0	-5.98668	435.588	61.1969	-0.228422	0.006	-0.869313	0	0.758535	0	0	0	0	0	0	0	0	0	0
8.15	-3.26145	379.984	-60.3973	-0.238734	0.006	-0.384826	0	-0.265633	0	-6.22654	435.067	61.1797	-0.227225	0.006	-0.869537	0	0.774066	0	0	0	0	0	0	0	0	0	0
8.16	-3.411	380.703	-60.6107	-0.237729	0.006	-0.384452	0	-0.286551	0	-6.48543	434.581	61.1623	-0.226005	0.006	-0.869767	0	0.790998	0	0	0	0	0	0	0	0	0	0
8.17	-3.56391	381.405	-60.8218	-0.236702	0.006	-0.384068	0	-0.308568	0	-6.77465	434.144	61.1424	-0.224765	0.006	-0.870003	0	0.809812	0	0	0	0	0	0	0	0	0	0
8.18	-3.72697	382.098	-61.0343	-0.235648	0.006	-0.383674	0	-0.332158	0	-7.10243	433.767	61.1185	-0.223512	0.006	-0.870243	0	0.830634	0	0	0	0	0	0	0	0	0	0
8.19	-3.909	382.785	-61.2511	-0.234565	0.006	-0.383268	0	-0.357449	0	-7.47303	433.45	61.0903	-0.222257	0.006	-0.870484	0	0.853153	0	0	0	0	0	0	0	0	0	0
8.2	-4.11892	383.464	-61.474	-0.233458	0.006	-0.382853	0	-0.384258	0	-7.88523	433.183	61.0582	-0.221017	0.006	-0.870723	0	0.876629	0	0	0	0	0	0	0	0	0	0
8.21	-4.36386	384.122	-61.7033	-0.23233	0.006	-0.382431	0	-0.412189	0	-8.33037	432.951	61.0236	-0.219811	0.006	-0.870959	0	0.900108	0	0	0	0	0	0	0	0	0	0
8.22	-4.6479	384.737	-61.9372	-0.231194	0.006	-0.382007	0	-0.440804	0	-8.79127	432.736	60.9878	-0.218663	0.006	-0.871186	0	0.922698	0	0	0	0	0	0	0	0	0	0
8.23	-4.97075	385.277	-62.1709	-0.230062	0.006	-0.381586	0	-0.469624	0	-9.24377	432.519	60.9518	-0.2176	0.006	-0.8714	0	0.943581	0	0	0	0	0	0	0	0	0	0
8.24	-5.32687	385.702	-62.3964	-0.22895	0.006	-0.381176	0	-0.498079	0	-9.65988	432.284	60.9159	-0.216649	0.006	-0.871598	0	0.962199	0	0	0	0	0	0	0	0	0	0
8.25	-5.70513	385.973	-62.6031	-0.227879	0.006	-0.380781	0	-0.525497	0	-10.011	432.02	60.8802	-0.21584	0.006	-0.871773	0	0.978209	0	0	0	0	0	0	0	0	0	0
8.26	-6.08969	386.059	-62.7802	-0.226869	0.006	-0.380411	0	-0.551155	0	-10.2708	431.722	60.8447	-0.2152	0.006	-0.871918	0	0.991317	0	0	0	0	0	0	0	0	0	0
8.27	-6.46187	385.953	-62.919	-0.225945	0.006	-0.380075	0	-0.574246	0	-10.4184	431.397	60.8096	-0.214755	0.006	-0.872028	0	1.00126	0	0	0	0	0	0	0	0	0	0
8.28	-6.80248	385.671	-63.0148	-0.225131	0.006	-0.379781	0	-0.59401	0	-10.4392	431.068	60.7759	-0.214529	0.006	-0.872097	0	1.00786	0	0	0	0	0	0	0	0	0	0
8.29	-7.09365	385.252	-63.0671	-0.224454	0.006	-0.379539	0	-0.609842	0	-10.3253	430.769	60.7455	-0.214537	0.006	-0.872124	0	1.01103	0	0	0	0	0	0	0	0	0	0
8.3	-7.3195	384.743	-63.0784	-0.223934	0.006	-0.379358	0	-0.621254	0	-10.0749	430.548	60.7211	-0.214789	0.006	-0.872105	0	1.01075	0	0	0	0	0	0	0	0	0	0
8.31	-7.46621	384.193	-63.0531	-0.22359	0.006	-0.379243	0	-0.62788	0	-9.69226	430.447	60.7059	-0.215289	0.006	-0.87204	0	1.00712	0	0	0	0	0	0	0	0	0	0
8.32	-7.52235	383.643	-62.9956	-0.223436	0.006	-0.379201	0	-0.629604	0	-9.18598	430.5	60.7023	-0.216033	0.006	-0.871932	0	1.00025	0	0	0	0	0	0	0	0	0	0
8.33	-7.4794	383.125	-62.909	-0.223478	0.006	-0.379234	0	-0.626516	0	-8.56796	430.722	60.7108	-0.21701	0.006	-0.87178	0	0.990165	0	0	0	0	0	0	0	0	0	0
8.34	-7.33252	382.658	-62.7933	-0.223721	0.006	-0.379344	0	-0.618811	0	-7.85149	431.112	60.7295	-0.218201	0.006	-0.871588	0	0.976773	0	0	0	0	0	0	0	0	0	0
8.35	-7.0806	382.25	-62.6453	-0.224159	0.006	-0.37953	0	-0.606832	0	-7.0503	431.653	60.7537	-0.219584	0.006	-0.871358	0	0.959928	0	0	0	0	0	0	0	0	0	0
8.36	-6.72562	381.899	-62.4598	-0.224785	0.006	-0.379792	0	-0.590983	0	-6.17845	432.319	60.7778	-0.221133	0.006	-0.871094	0	0.939453	0	0	0	0	0	0	0	0	0	0
8.37	-6.27214	381.599	-62.231	-0.225588	0.006	-0.380125	0	-0.571593	0	-5.25081	433.077	60.7952	-0.222817	0.006	-0.870802	0	0.915068	0	0	0	0	0	0	0	0	0	0
8.38	-5.72758	381.338	-61.9549	-0.226552	0.006	-0.380524	0	-0.548885	0	-4.28331	433.888	60.799	-0.224599	0.006	-0.870486	0	0.886454	0	0	0	0	0	0	0	0	0	0
8.39	-5.10156	381.099	-61.629	-0.227656	0.006	-0.380983	0	-0.523057	0	-3.2936	434.706	60.7822	-0.226444	0.006	-0.870153	0	0.853331	0	0	0	0	0	0	0	0	0	0
8.4	-4.40619	380.857	-61.2525	-0.228879	0.006	-0.381495	0	-0.494323	0	-2.30214	435.486	60.7372	-0.22831	0.006	-0.869806	0	0.81542	0	0	0	0	0	0	0	0	0	0
8.41	-3.65672	380.582	-60.8248	-0.230195	0.006	-0.382052	0	-0.462893	0	-1.33251	436.176	60.656	-0.230154	0.006	-0.869453	0	0.772402	0	0	0	0	0	0	0	0	0	0
8.42	-2.87137	380.233	-60.3457	-0.231574	0.006	-0.382643	0	-0.428985	0	-0.410893	436.722	60.5294	-0.231932	0.006	-0.8691	0	0.724165	0	0	0	0	0	0	0	0	0	0
8.43	-2.07097	379.767	-59.8149	-0.232984	0.006	-0.383255	0	-0.392832	0	0.43581	437.068	60.3473	-0.233602	0.006	-0.868753	0	0.670894	0	0	0	0	0	0	0	0	0	0
8.44	-1.27929	379.134	-59.2316	-0.234391	0.006	-0.383877	0	-0.35476	0	1.18291	437.153	60.0985	-0.235126	0.006	-0.868419	0	0.61303	0	0	0	0	0	0	0	0	0	0
8.45	-0.522792	378.282	-58.5946	-0.235759	0.006	-0.384492	0	-0.315146	0	1.81038	436.915	59.771	-0.236472	0.006	-0.868104	0	0.551152	0	0	0	0	0	0	0	0	0	0
8.46	0.171666	377.149	-57.9025	-0.237052	0.006	-0.385086	0	-0.274437	0	2.30441	436.286	59.3528	-0.237617	0.006	-0.867813	0	0.486102	0	0	0	0	0	0	0	0	0	0
8.47	0.778741	375.669	-57.154	-0.238236	0.006	-0.385645	0	-0.233041	0	2.658	435.196	58.8321	-0.238552	0.006	-0.867552	0	0.418996	0	0	0	0	0	0	0	0	0	0
8.48	1.27671	373.763	-56.348	-0.239281	0.006	-0.386156	0	-0.191277	0	2.86949	433.575	58.1991	-0.239273	0.006	-0.867321	0	0.351139	0	0	0	0	0	0	0	0	0	0
8.49	1.64963	371.348	-55.4829	-0.240164	0.006	-0.386609	0	-0.149336	0	2.94027	431.354	57.4475	-0.239789	0.006	-0.867121	0	0.284045	0	0	0	0	0	0	0	0	0	0
8.5	1.89023	368.331	-54.5557	-0.240871	0.006	-0.386997	0	-0.107262	0	2.87323	428.477	56.5771	-0.240111	0.006	-0.866954	0	0.219266	0	0	0	0	0	0	0	0	0	0
8.51	2.00118	364.621	-53.5619	-0.241395	0.006	-0.387314	0	-0.064908	0	2.67158	424.905	55.5956	-0.240254	0.006	-0.866819	0	0.158345	0	0	0	0	0	0	0	0	0	0
8.52	1.99412	360.133	-52.4963	-0.241741	0.006	-0.387561	0	-0.021969	0	2.33776	420.626	54.5189	-0.240237	0.006	-0.866717	0	0.102848	0	0	0	0	0	0	0	0	0	0
8.53	1.88575	354.813	-51.3559	-0.241921	0.006	-0.387739	0	0.021807	0	1.87272	415.653	53.371	-0.240078	0.006	-0.866649	0	0.054301	0	0	0	0	0	0	0	0	0	0
8.54	1.69297	348.647	-50.1426	-0.241953	0.006	-0.387853	0	0.066425	0	1.27664	410.024	52.1818	-0.239801	0.006	-0.866617	0	0.01409	0	0	0	0	0	0	0	0	0	0
8.55	1.42942	341.67	-48.866	-0.241857	0.006	-0.38791	0	0.111473	0	0.551482	403.809	50.9845	-0.23943	0.006	-0.866623	0	-0.016333	0	0	0	0	0	0	0	0	0	0
8.56	1.10428	333.968	-47.5451	-0.241656	0.006	-0.387918	0	0.156074	0	-0.296239	397.109	49.8148	-0.23899	0.006	-0.866667	0	-0.035292	0	0	0	0	0	0	0	0	0	0
8.57	0.722575	325.675	-46.2068	-0.241371	0.006	-0.387884	0	0.199031	0	-1.25377	390.061	48.7091	-0.238508	0.006	-0.86675	0	-0.041004	0	0	0	0	0	0	0	0	0	0
8.58	0.286278	316.966	-44.8859	-0.241023	0.006	-0.387817	0	0.239094	0	-2.3011	382.833	47.7029	-0.238014	0.006	-0.866873	0	-0.031671	0	0	0	0	0	0	0	0	0	0
8.59	-0.204303	308.063	-43.6234	-0.240632	0.006	-0.387724	0	0.275207	0	-3.41139	375.619	46.8302	-0.237538	0.006	-0.867036	0	-0.005571	0	0	0	0	0	0	0	0	0	0
8.6	-0.74975	299.224	-42.4629	-0.240222	0.006	-0.387613	0	0.306578	0	-4.55187	368.629	46.1208	-0.237112	0.006	-0.867239	0	0.038921	0	0	0	0	0	0	0	0	0	0
8.61	-1.34917	290.738	-41.4454	-0.239821	0.006	-0.387498	0	0.332629	0	-5.68574	362.069	45.5976	-0.236769	0.006	-0.867478	0	0.103189	0	0	0	0	0	0	0	0	0	0
8.62	-1.9955	282.918	-40.6035	-0.239466	0.006	-0.387399	0	0.352871	0	-6.7738	356.124	45.2723	-0.236541	0.006	-0.867751	0	0.188233	0	0	0	0	0	0	0	0	0	0
8.63	-2.67069	276.075	-39.9573	-0.239205	0.006	-0.387339	0	0.366805	0	-7.77619	350.946	45.1439	-0.236457	0.006	-0.868049	0	0.294628	0	0	0	0	0	0	0	0	0	0
8.64	-3.34245	270.491	-39.5134	-0.239092	0.006	-0.387347	0	0.373824	0	-8.65592	346.641	45.1997	-0.236543	0.006	-0.868363	0	0.422567	0	0	0	0	0	0	0	0	0	0
8.65	-3.96561	266.386	-39.2657	-0.239183	0.006	-0.387452	0	0.373214	0	-9.37991	343.272	45.4178	-0.23682	0.006	-0.86868	0	0.572013	0	0	0	0	0	0	0	0	0	0
8.66	-4.49086	263.906	-39.2009	-0.239533	0.006	-0.387677	0	0.363978	0	-9.91965	340.852	45.7697	-0.237301	0.006	-0.868983	0	0.742718	0	0	0	0	0	0	0	0	0	0
8.67	-4.87443	263.109	-39.3017	-0.240182	0.006	-0.388042	0	0.344785	0	-10.2528	339.351	46.2234	-0.237993	0.006	-0.869259	0	0.934241	0	0	0	0	0	0	0	0	0	0
8.68	-5.0824	263.957	-39.5451	-0.241154	0.006	-0.388556	0	0.313947	0	-10.3646	338.712	46.7481	-0.238895	0.006	-0.869492	0	1.14592	0	0	0	0	0	0	0	0	0	0
8.69	-5.09236	266.33	-39.9023	-0.242452	0.006	-0.389217	0	0.269404	0	-10.2531	338.879	47.3204	-0.239996	0.006	-0.869673	0	1.37685	0	0	0	0	0	0	0	0	0	0
8.7	-4.89569	270.039	-40.3431	-0.244053	0.006	-0.390014	0	0.208731	0	-9.93015	339.816	47.9257	-0.241279	0.006	-0.869793	0	1.62587	0	0	0	0	0	0	0	0	0	0
8.71	-4.4991	274.868	-40.8404	-0.245916	0.006	-0.390928	0	0.129287	0	-9.4149	341.491	48.5532	-0.242716	0.006	-0.86985	0	1.89142	0	0	0	0	0	0	0	0	0	0
8.72	-3.92152	280.594	-41.3702	-0.247986	0.006	-0.391932	0	0.028399	0	-8.72451	343.862	49.1876	-0.244268	0.006	-0.869844	0	2.17137	0	0	0	0	0	0	0	0	0	0
8.73	-3.1873	287.009	-41.9113	-0.250202	0.006	-0.393	0	-0.096541	0	-7.87073	346.863	49.8085	-0.24589	0.006	-0.869778	0	2.46293	0	0	0	0	0	0	0	0	0	0
8.74	-2.31879	293.933	-42.4427	-0.252504	0.006	-0.394106	0	-0.247858	0	-6.86446	350.406	50.3946	-0.247536	0.006	-0.869661	0	2.76257	0	0	0	0	0	0	0	0	0	0
8.75	-1.331	301.225	-42.9408	-0.254836	0.006	-0.395226	0	-0.427406	0	-5.72553	354.411	50.9326	-0.249153	0.006	-0.869504	0	3.06613	0	0	0	0	0	0	0	0	0	0
8.76	-0.230937	308.761	-43.3826	-0.257146	0.006	-0.396338	0	-0.636293	0	-4.48477	358.817	51.4179	-0.250693	0.006	-0.869321	0	3.36868	0	0	0	0	0	0	0	0	0	0
8.77	0.976359	316.427	-43.7513	-0.259383	0.006	-0.397417	0	-0.874548	0	-3.17904	363.575	51.8499	-0.252108	0.006	-0.869128	0	3.66475	0	0	0	0	0	0	0	0	0	0
8.78	2.27648	324.096	-44.043	-0.261495	0.006	-0.398437	0	-1.14075	0	-1.84431	368.625	52.2263	-0.253355	0.006	-0.868939	0	3.94852	0	0	0	0	0	0	0	0	0	0
8.79	3.64009	331.624	-44.2644	-0.263428	0.006	-0.399369	0	-1.43181	0	-0.511682	373.87	52.5408	-0.254402	0.006	-0.868769	0	4.21427	0	0	0	0	0	0	0	0	0	0
8.8	5.02651	338.858	-44.4259	-0.265136	0.006	-0.400189	0	-1.74316	0	0.793803	379.167	52.7813	-0.255223	0.006	-0.868626	0	4.45718	0	0	0	0	0	0	0	0	0	0
8.81	6.39367	345.659	-44.5374	-0.266588	0.006	-0.400882	0	-2.0691	0	2.05064	384.341	52.931	-0.255801	0.006	-0.868519	0	4.67356	0	0	0	0	0	0	0	0	0	0
8.82	7.7075	351.923	-44.6078	-0.267767	0.006	-0.401438	0	-2.40343	0	3.23683	389.199	52.9722	-0.256126	0.006	-0.868454	0	4.86093	0	0	0	0	0	0	0	0	0	0
8.83	8.9442	357.609	-44.649	-0.26867	0.006	-0.401854	0	-2.74	0	4.32767	393.551	52.8887	-0.256195	0.006	-0.868434	0	5.01826	0	0	0	0	0	0	0	0	0	0
8.84	10.0867	362.744	-44.6766	-0.269309	0.006	-0.402134	0	-3.07312	0	5.29579	397.241	52.6724	-0.256005	0.006	-0.868463	0	5.1461	0	0	0	0	0	0	0	0	0	0
8.85	11.1221	367.4	-44.7074	-0.269701	0.006	-0.402284	0	-3.39788	0	6.11181	400.188	52.329	-0.25556	0.006	-0.868541	0	5.24658	0	0	0	0	0	0	0	0	0	0
8.86	12.0431	371.67	-44.7553	-0.269871	0.006	-0.402316	0	-3.7102	0	6.74548	402.393	51.8807	-0.254871	0.006	-0.868669	0	5.32311	0	0	0	0	0	0	0	0	0	0
8.87	12.8492	375.655	-44.829	-0.269847	0.006	-0.402245	0	-4.00691	0	7.16846	403.934	51.3628	-0.253951	0.006	-0.868847	0	5.37987	0	0	0	0	0	0	0	0	0	0
8.88	13.5435	379.465	-44.9357	-0.269658	0.006	-0.402089	0	-4.28595	0	7.35866	404.926	50.8159	-0.252823	0.006	-0.869071	0	5.42117	0	0	0	0	0	0	0	0	0	0
8.89	14.1258	383.204	-45.0849	-0.269333	0.006	-0.401867	0	-4.54616	0	7.30596	405.493	50.276	-0.251519	0.006	-0.869333	0	5.45102	0	0	0	0	0	0	0	0	0	0
